<?xml version="1.0" encoding="UTF-8"?><svg id="a" xmlns="http://www.w3.org/2000/svg" viewBox="0 0 500 188.12"><g><path d="M111.76,136.56l-28.31-49.03h13.02l19.86,35.44,18.91-35.44h11.39l-26.98,49.03h-7.89Z" style="fill:#fff;"/><path d="M165.15,136.56v-49.03h11.39l.12,49.03h-11.5Z" style="fill:#fff;"/><path d="M289.07,136.56v-49.03h11.39l.12,49.03h-11.5Z" style="fill:#fff;"/><path d="M248.21,96.09h-32.1v10.55h30.59c4.76,0,8.03,.82,9.79,2.46,1.64,1.67,2.46,4.71,2.46,9.12v6.75c0,4.42-.82,7.47-2.46,9.14-1.76,1.64-5.03,2.46-9.79,2.46h-30.31c-4.79,0-8.02-.82-9.69-2.46-1.7-1.62-2.55-4.67-2.55-9.13v-1.32l10.07-2.08v5.79h34.67v-11.2h-30.59c-4.73,0-7.93-.82-9.6-2.46-1.7-1.62-2.55-4.67-2.55-9.12v-5.43c0-4.46,.85-7.5,2.55-9.12,1.65-1.66,4.86-2.48,9.6-2.48h27.83c4.62,0,7.82,.8,9.6,2.39,1.7,1.59,2.55,4.38,2.55,8.35v1.04l-10.07,2.39v-5.61Z" style="fill:#fff;"/><path d="M328.15,99.13c0-4.41,.82-7.45,2.46-9.12,1.75-1.65,4.98-2.48,9.7-2.48h36.13c4.76,0,7.96,.83,9.58,2.48,1.72,1.62,2.58,4.66,2.58,9.12v25.84c0,4.47-.86,7.51-2.58,9.14-1.64,1.64-4.83,2.46-9.58,2.46h-36.13c-4.7,0-7.94-.82-9.7-2.46-1.64-1.67-2.46-4.72-2.46-9.14v-25.84Zm11.41,28.23h37.62v-31.08h-37.62v31.08Z" style="fill:#fff;"/><path d="M417.22,136.56v-49.03h7.79l34.46,28.9c1.41,1.07,2.46,1.95,3.15,2.64,.63,.65,1.45,1.54,2.46,2.67-.09-1.41-.16-2.52-.21-3.33-.05-.81-.1-1.64-.16-2.47-.06-.76-.09-1.65-.09-2.67v-25.75h10.25v49.03h-7.79l-36-30.31c-1.04-.9-1.8-1.59-2.3-2.09-.82-.82-1.42-1.45-1.79-1.9,.03,.56,.09,1.3,.19,2.23s.15,1.62,.19,2.06c.06,.94,.09,2.11,.09,3.5v26.51h-10.25Z" style="fill:#fff;"/></g><g><g><path d="M82.97,56.04V7.01h11.39l.12,49.03h-11.5Z" style="fill:#e15524;"/><path d="M112.71,56.04V7.01h7.79l34.47,28.9c1.41,1.07,2.46,1.95,3.15,2.64,.63,.65,1.45,1.54,2.46,2.67-.09-1.41-.16-2.52-.21-3.33-.05-.81-.1-1.64-.16-2.47-.06-.76-.09-1.65-.09-2.67V7.01h10.25V56.04h-7.79l-36-30.31c-1.04-.9-1.8-1.59-2.3-2.09-.82-.82-1.42-1.45-1.79-1.9,.03,.56,.09,1.3,.19,2.23s.15,1.62,.19,2.06c.06,.94,.09,2.11,.09,3.5v26.51h-10.25Z" style="fill:#e15524;"/><path d="M229.73,15.57h-32.1v10.55h30.59c4.76,0,8.03,.82,9.79,2.46,1.64,1.67,2.46,4.71,2.46,9.12v6.75c0,4.42-.82,7.47-2.46,9.14-1.76,1.64-5.03,2.46-9.79,2.46h-30.31c-4.79,0-8.02-.82-9.69-2.46-1.7-1.62-2.55-4.67-2.55-9.13v-1.32l10.07-2.08v5.79h34.67v-11.2h-30.59c-4.73,0-7.93-.82-9.6-2.46-1.7-1.62-2.55-4.67-2.55-9.12v-5.43c0-4.46,.85-7.5,2.55-9.12,1.65-1.66,4.86-2.48,9.6-2.48h27.83c4.62,0,7.82,.8,9.6,2.39,1.7,1.59,2.55,4.38,2.55,8.35v1.04l-10.07,2.39v-5.61Z" style="fill:#e15524;"/><path d="M259.2,56.04V7.01h41.89c3.85,0,6.7,.73,8.56,2.2,1.7,1.5,2.55,3.94,2.55,7.31v10.92c0,3.31-.85,5.71-2.55,7.21-1.81,1.53-4.66,2.3-8.56,2.3h-30.68v19.09h-11.2Zm36.85-40.57h-25.65v13.01h25.65c2,0,3.36-.29,4.08-.86,.7-.57,1.04-1.58,1.04-3.04v-5.22c0-1.45-.35-2.47-1.04-3.04-.73-.57-2.09-.86-4.08-.86Z" style="fill:#e15524;"/><path d="M323.22,56.04V7.01h11.39l.12,49.03h-11.5Z" style="fill:#e15524;"/><path d="M353.15,56.04V7.01h41.89c3.85,0,6.7,.73,8.56,2.2,1.7,1.5,2.55,3.94,2.55,7.31v11.5c0,3.29-.85,5.7-2.55,7.21-1.79,1.52-4.65,2.27-8.56,2.27h-6.36l22.61,18.53h-16.35l-19.76-18.53h-10.83v18.53h-11.2Zm36.85-40.57h-25.65v13.68h25.65c2,0,3.36-.29,4.08-.86,.7-.6,1.04-1.62,1.04-3.04v-5.89c0-1.45-.35-2.47-1.04-3.04-.73-.57-2.09-.86-4.08-.86Z" style="fill:#e15524;"/><path d="M422.78,56.04V7.01h11.39l.12,49.03h-11.5Z" style="fill:#e15524;"/></g><path d="M474.43,15.75V56.04h-11.41V15.75h-22.5V7.01h56.52V15.75h-22.61Z" style="fill:#e15524;"/></g><circle cx="55.04" cy="18.46" r="11.74" style="fill:#fff;"/><path d="M6.96,62.88s9.25-12.56,22.89-18.77c13.19-6,17.97-2.27,20.07,1.7s1.48,12.85-4.43,23.08c-.63,1.45-24.28,46.26-31.18,56.28-8.6,12.05-11.36,11.96-11.36,11.96,0,0,25.32-45.53,32.98-63.91,2.64-5.79,7.53-24.55-14.04-18.35-7.33,2.44-11.41,7.97-11.41,7.97l-3.53,.04Z" style="fill:#e15524;"/></svg>